<?xml version="1.0" encoding="UTF-8"?>
<svg id="Layer_1" data-name="Layer 1" xmlns="http://www.w3.org/2000/svg" version="1.1" viewBox="0 0 2388 1668">
  <defs>
    <style>
      .cls-1 {
        stroke: #000;
        stroke-miterlimit: 10;
      }

      .cls-1, .cls-2 {
        fill: #fff;
      }

      .cls-2 {
        stroke-width: 0px;
      }
    </style>
  </defs>
  <path class="cls-2" d="M499,108h213q4,9,4,12h2c1.4,3.8,2.9,7.6,4.3,11.4.5,1.3,1,2.6,1.5,3.9.7,1.9,1.4,3.7,2.1,5.6.4,1.1.8,2.2,1.3,3.4q.9,2.7.9,4.7h2c.2.6.4,1.1.6,1.7q5.7,16.4,12.3,32.5c2.2,4.8,4.1,9.7,6.1,14.7,2.2,5.5,4.4,11,6.7,16.4,2.2,5.3,4.2,10.6,6.1,16,1.2,3.3,2.5,6.5,4.2,9.6,2.4,4.7,4.2,9.6,6.1,14.6,1.9,5.1,3.8,10.1,6,15.1,2.6,5.8,4.8,11.8,7,17.8,1.5,4,3,7.9,5,11.7,2.4,4.7,4.2,9.5,6,14.4,1.9,5.1,3.8,10.1,6,15.1,2.6,5.8,4.8,11.8,7,17.8,1.8,4.8,3.7,9.3,6.1,13.8,1.6,3.3,2.7,6.7,3.9,10.2,2,5.9,4.2,11.6,6.6,17.3,1.9,4.6,3.7,9.3,5.4,13.9,2.5,6.5,5,13,7.7,19.4,2,4.8,3.8,9.7,5.7,14.5,1.7,4.5,3.6,8.9,5.6,13.3,1.6,3.7,3.1,7.5,4.6,11.2q.5,1.3,1,2.5c1.6,3.9,3.1,7.8,4.6,11.7,1.3,3.3,2.6,6.7,4,10q.6,1.6,1.2,3.2c1.7,4.3,3.4,8.6,5.6,12.7,2.2,4.3,3.7,8.8,5.2,13.4,2.4,7,5,13.7,8,20.4,2.8,6.2,5.3,12.6,7.9,18.9,1.8,4.5,3.6,9,5.5,13.4,2.2,5.2,4.2,10.5,6.1,15.8,2.3,6.1,4.7,12,7.2,18-.7.6-1.4,1.2-2.2,1.8-1,.8-1.9,1.6-2.9,2.4-1,.8-1.9,1.6-2.9,2.4-2,1.6-3.9,3.3-5.9,4.9-3.4,2.8-7,5.4-10.5,8-.6.5-1.3.9-1.9,1.4-1.9,1.4-3.8,2.7-5.7,4.1-.6.5-1.3.9-1.9,1.4q-10.6,7.6-14.1,7.6v2q-33.6,18.7-45,22v2c-.8.3-1.6.6-2.4.8-3,1.1-5.9,2.1-8.9,3.2-1.9.7-3.8,1.3-5.7,2-1.2.4-2.4.9-3.7,1.3q-.9.3-1.9.7c-4,1.4-7.9,3-11.8,4.5-8.3,3.2-16.9,5.1-25.6,7.1-.9.2-1.7.4-2.6.6q-38.7,8.8-45.5,5.8-1.4-2.5-2.5-5.8-.6-1.8-1.3-3.6c-.4-1.2-.8-2.4-1.2-3.6-.8-1.9-1.6-3.8-2.4-5.8-2.4-5.6-4.4-11.3-6.3-17-1.2-3.6-2.6-7.1-4.2-10.6-2.2-4.9-4-10-5.8-15.1q-.5-1.3-1-2.7-2.3-6.6-2.3-8.8h-2c-.2-.6-.4-1.2-.6-1.8-.9-2.7-1.8-5.5-2.7-8.2-.3-.9-.6-1.9-.9-2.8-1.4-4.3-2.9-8.5-4.5-12.7q-1.3-3.5-1.3-6.5h-2c-.3-.9-.6-1.8-.9-2.7-1.2-3.4-2.4-6.7-3.5-10-.5-1.4-1-2.9-1.5-4.3-2.5-7.1-4.9-14.1-8.1-20.9-2-4.5-3.6-9.3-5.3-13.9-1.4-3.9-2.9-7.7-4.6-11.5-2.5-5.4-4.5-11-6.6-16.6q-3.2-8.6-6.6-17.2c-2.3-5.7-4.3-11.5-6.3-17.4-1.7-5-3.6-10-5.6-14.9-2.2-5.5-4.1-11.1-6.1-16.6-1-2.7-1.9-5.3-2.9-7.9q-.4-1.1-.8-2.2c-.6-1.6-1.4-3.2-2.2-4.8q-2.6-1.1-5-1c-.1.9-.2,1.7-.3,2.6-.7,3.5-1.7,6.1-3.2,9.3-4.5,10.1-7.9,20.6-11.4,31.1h-2c-.1.5-.2,1.1-.3,1.6-1.2,5.7-2.9,11.1-4.9,16.5q-.5,1.2-.9,2.5c-1.8,4.8-3.7,9.5-5.8,14.2-3.9,8.8-6.9,17.9-10,27.1h-2c-.1.9-.3,1.7-.4,2.6-.6,3.2-1.4,6-2.5,9.1-.4,1.1-.8,2.1-1.2,3.2-.4,1.1-.8,2.2-1.2,3.3-.4,1.1-.8,2.2-1.2,3.3-2,5.5-4.1,10.8-6.5,16.1-1.9,4.3-3.4,8.8-5,13.2-1.9,5.3-3.7,10.5-6,15.5-2.6,5.6-4.5,11.5-6.4,17.3-.3.8-.6,1.7-.9,2.6-.3.8-.5,1.5-.8,2.3q-.9,2.3-2.4,4.7c-1.6,2.8-2.6,5.4-3.6,8.5-.4,1.1-.8,2.2-1.1,3.4-.8,2.3-1.6,4.7-2.3,7-1.9,5.5-3.8,10.7-6.5,15.8-1.8,3.6-2.9,7.4-4.2,11.1-2.4,7.1-5,14.1-7.9,21.1-3.3,8.1-6.2,16.3-8.9,24.7h-2c-.7,3-1.3,5.9-2,9,.8,0,1.6,0,2.4,0,19.3,0,38.7,0,58,0,9.3,0,18.7,0,28,0,37.2,0,74.3.2,111.3,3.7.7,0,1.3.1,2,.2,14,1.3,27.8,3,41.7,5.1,1.1.2,2.2.3,3.3.5,4.9.8,9.6,1.7,14.3,3.4,2.2.6,4.4,1.1,6.6,1.6,1.2.3,2.5.6,3.8.9,1.3.3,2.6.6,3.9.9q22.1,5.2,31.5,9.6c3.7,1.6,7.5,2.9,11.3,4.2,8.3,3,16.1,6.6,24,10.7,2.2,1.2,4.5,2.3,6.8,3.4,5.3,2.7,10.5,5.5,15.7,8.5.9.5,1.8,1.1,2.8,1.6,6.1,3.5,12,7.3,17.7,11.5,1.7,1.2,3.3,2.3,5,3.5.8.6,1.6,1.1,2.5,1.7,1.7,1.2,3.5,2.4,5.2,3.7.9.6,1.8,1.2,2.7,1.9.8.6,1.6,1.1,2.4,1.7q1.1.8,2.2,1.6t2.3,1.6c.6.5,1.1.9,1.7,1.4v2c.6.3,1.1.5,1.7.8,2.5,1.3,4.7,2.9,7,4.7.8.6,1.6,1.2,2.4,1.8q1.9,1.8,2.9,4.8c1.3.7,2.7,1.4,4,2,1.5,1.2,3,2.5,4.4,3.8.7.7,1.5,1.3,2.2,2,5.3,4.9,10.2,10.2,15.2,15.4.7.7,1.4,1.4,2.1,2.2,4.1,4.3,7.9,8.8,11.4,13.5,1.7,2.2,3.6,4.1,5.6,6.1,6.5,8.1,12.2,16.7,17.9,25.4,1.4,2,2.8,4.1,4.1,6.1,7.3,11,13.3,22.9,19,34.7.8,1.7,1.6,3.3,2.4,5,4.6,9.5,8,19.5,11.6,29.4.8,2.2,1.6,4.3,2.4,6.5,1.8,4.7,3,9.4,4.3,14.2q.4,1.4.8,2.9c.5,2,1.1,4,1.6,6,.7,2.6,1.4,5.2,2.1,7.8,6.4,23.7,8.4,48.2,10.6,72.5.5,5.6,1,11.1,1.5,16.7.2,2,.4,4,.5,6,.8,8.7,1.7,17.3,2.7,25.9q.3,2.9.3,3.9h-163q-2.5-6.4-5-13c-.8-1.8-1.6-3.7-2.4-5.6-2.7-6.3-4.9-12.8-7.1-19.2-1.7-4.9-3.5-9.6-5.4-14.4-2-5.1-3.7-10.3-5.5-15.4-1.7-4.8-3.5-9.4-5.6-14.1-1.8-4.1-3.3-8.4-4.8-12.7-.3-.9-.6-1.8-1-2.7-.3-.9-.6-1.7-.9-2.6q-.4-1.1-.8-2.3-.6-2-.6-5h-2c-1.4-4.2-2.9-8.4-4.3-12.7-.5-1.4-1-2.9-1.5-4.3-.7-2.1-1.4-4.1-2.1-6.2-.4-1.2-.8-2.5-1.3-3.8q-.9-3.1-.9-6.1h-2c-.3-.9-.6-1.8-.9-2.8-1.2-3.4-2.4-6.9-3.5-10.3-.5-1.5-1-3-1.5-4.5-2.5-7.5-5.1-14.9-8.1-22.2-1.8-4.6-3.2-9.3-4.7-14-.2-.8-.5-1.5-.7-2.3-.2-.7-.4-1.3-.6-2-1-2.4-2-4-3.8-5.9q-3-.6-6.4-.5-1,0-2,0c-2.2,0-4.4,0-6.7,0-1.6,0-3.2,0-4.8,0-4.4,0-8.8,0-13.3,0-4.8,0-9.5,0-14.3,0-8.2,0-16.5,0-24.7,0-11.9,0-23.9,0-35.8,0-19.3,0-38.7,0-58,0-18.8,0-37.6,0-56.4,0-1.2,0-2.3,0-3.5,0-5.8,0-11.6,0-17.4,0-48.2,0-96.4.1-144.7.2-.3,1.7-.7,3.3-1,5h-2c-.3,1.2-.5,2.5-.8,3.8-1.3,5.7-3.2,11.2-5.1,16.7-.3,1-.7,2-1,3-1.6,4.4-3.2,8.8-5.1,13-2.3,5.1-4.1,10.4-5.9,15.8-2.4,7-4.9,13.9-7.8,20.7-1.9,4.7-3.4,9.6-5,14.4-1.2,3.7-2.5,7.3-4.1,10.8-2.6,5.6-4.4,11.4-6.3,17.3-.4,1.1-.7,2.2-1.1,3.3-.9,2.7-1.8,5.4-2.6,8.1h-2c-.1.7-.3,1.4-.4,2.1-1.1,5.3-3.1,10.3-4.9,15.4-.4,1.1-.8,2.2-1.2,3.4-2.2,6.5-4.7,12.8-7.4,19.1-1.9,4.6-3.5,9.4-5,14.2-.3.9-.6,1.9-.9,2.9-.8,2.3-1.5,4.6-2.2,6.9h-2c-.1.9-.3,1.9-.4,2.9q-.6,3.1-1.6,5.1H89v-3h2q.2-.8.4-1.6c3.4-12.1,8.4-23.8,13.3-35.4,1.8-4.4,3.4-8.8,5-13.3,1.2-3.3,2.5-6.4,4.1-9.5,2.6-5.1,4.4-10.4,6.3-15.7q.5-1.5,1.1-3.1c.9-2.5,1.8-5,2.6-7.4h2c.4-1.3.7-2.5,1.1-3.8,3.3-11.1,7.2-22.2,12.6-32.4,2.3-4.8,4-9.8,5.7-14.7,1.7-4.7,3.5-9.2,5.6-13.7,2.2-5.1,4.1-10.4,6-15.6,1.5-4,3-7.9,5-11.7,2.6-5,4.4-10.3,6.3-15.6q.5-1.5,1.1-3.1c.9-2.5,1.8-5,2.6-7.4h2q.2-1.1.4-2.2c1-4.7,2.8-9.1,4.4-13.6q.5-1.4,1-2.9c1.5-4.2,3.1-8.3,5.2-12.3,2.5-4.8,4.2-9.9,6-15,2-5.8,4.1-11.5,7-16.9,2-4.1,3.4-8.3,5-12.6q3.7-10,6-14.5c2.5-4.8,4.2-9.9,6-15,2-5.9,4.1-11.5,7-17,1.9-4,3.4-8.2,4.9-12.4q4.1-11.1,6.6-16.2c3.9-8.2,6.5-16.9,9.4-25.4h2c.1-.6.3-1.2.5-1.9,1.9-7.5,4.6-14.6,7.6-21.8,1.4-3.3,2.7-6.6,4-9.9.3-.6.5-1.3.8-2,2.5-6.3,4.8-12.6,6.9-19,1-2.6,1.9-4.8,3.2-7.2,2.4-4.7,4.3-9.7,6.1-14.6,2.2-5.8,4.4-11.6,7-17.3,2.2-5.1,4.1-10.3,6-15.6,1.8-4.7,3.7-9.2,6-13.7,2-4,3.4-8.3,5-12.5,2.2-5.8,4.4-11.6,7-17.3,2.2-5.1,4.1-10.3,6-15.6,1.8-4.7,3.7-9.2,6-13.7,1.8-3.7,3.1-7.6,4.5-11.4,2-5.5,4.1-10.9,6.5-16.2,2.2-5.1,4.1-10.4,6-15.6,1.8-4.7,3.7-9.2,6-13.7,2-4,3.4-8.3,5-12.5,2.2-5.8,4.4-11.6,7-17.3,2.2-5.1,4.1-10.3,6-15.6,1.8-4.7,3.7-9.2,6-13.7,2-4,3.4-8.3,5-12.5,2.2-5.8,4.4-11.6,7-17.3,2.2-5.1,4.1-10.3,6-15.6,1.5-4,3-7.9,5-11.7,2.6-5,4.4-10.3,6.3-15.6.4-1,.7-2,1.1-3.1.9-2.5,1.8-5,2.6-7.4h2c.1-.7.3-1.4.4-2.2.6-2.9,1.5-5.4,2.5-8.2.4-1,.8-2,1.2-3.1q.6-1.6,1.2-3.2c.4-1,.8-2.1,1.2-3.1,2.3-6,4.7-11.9,7.5-17.7,1.6-3.7,2.9-7.4,4.2-11.2,1.6-5,3.5-9.6,5.9-14.2,1.8-3.7,3.2-7.6,4.6-11.5,3.1-8.4,6.4-16.7,9.7-24.9.4-1.1.8-2.1,1.3-3.2q3.3-8.1,5-12.1c1.7-4,3.3-8,4.9-12.1.3-.8.6-1.6.9-2.4,1.6-4.2,3.2-8.5,4.8-12.8,1.2-3.5,2.6-6.7,4.2-10.1,2.7-5.9,4.9-11.9,7.1-18,1.7-4.7,3.5-9.2,5.6-13.8,1.6-3.7,3.1-7.5,4.5-11.2,1.7-4.5,3.5-9,5.5-13.4,2.6-5.8,4.8-11.9,7-17.9,2-5.4,4.4-10.6,7-15.7,1.3-3,2.6-5.9,4-9Z"/>
  <path class="cls-1" d="M1069,108c49.8,0,99.5-.1,149.3-.2,5.9,0,11.8,0,17.7,0q1.8,0,3.6,0c18.9,0,37.8,0,56.8,0,19.5,0,38.9,0,58.4,0,12,0,24,0,35.9,0,8.2,0,16.5,0,24.7,0,4.7,0,9.5,0,14.2,0,41.7-.1,80.9,4.7,121.5,14.4,1.2.3,2.3.6,3.5.8,1,.3,2.1.5,3.2.8q1.3.3,2.7.7c3.9,1.1,7.5,2.7,11.1,4.3,3.4,1.4,6.8,2.7,10.3,3.9,8.6,3,16.6,6.6,24.7,10.8,4.1,2.1,8.3,4,12.5,5.8v2c.7.3,1.4.5,2.1.8,8.8,3.7,16.8,8.6,24.4,14.3,2.2,1.7,4.5,3.1,6.9,4.5,3.4,2,5.9,4.5,8.6,7.3q1.4.9,2.9,1.9c3.2,2.2,5.5,4.5,8.2,7.3,2.1,2,4.3,3.7,6.6,5.5,3.3,2.5,5.8,5,8.3,8.4,1.5,1.2,2.9,2.4,4.4,3.6,2.4,2.2,4.2,4.9,6.1,7.6q1.5,2.1,3.8,4.2c4.1,4.2,7.3,8.9,10.6,13.7.6.8,1.2,1.6,1.8,2.5,12,16.9,21.6,34.5,28.4,54.1.8,2.4,1.7,4.7,2.6,7.1,7.2,19,10.8,38.9,13.7,59q.3,3.2,1.5,5.4c2.2,15.4,2.3,31.2,2.3,46.7,0,3.3,0,6.6,0,9.9,0,10.9-.3,21.7-1.2,32.5q-.1,1.5-.2,3c-.5,5.5-1.4,10.6-2.9,15.9-.4,2.1-.8,4.1-1.1,6.2q-.3,1.7-.6,3.4c-.2,1.2-.4,2.4-.6,3.6-1.5,8.7-3.1,17.3-5.2,25.8q-.3,1.1-.6,2.3c-1.6,6-3.7,11.8-5.9,17.7-.7,2-1.4,3.9-2.1,5.9l-5.9,16.1h-2c-.4,1.2-.7,2.4-1.1,3.6-2.2,6.8-5.7,13-8.9,19.4h-2c-.3.9-.5,1.8-.8,2.7-4.6,12.8-15.5,25.6-24.6,35.5-1.7,1.9-3.2,3.9-4.7,6-2.3,3.2-4.8,5.3-7.9,7.8-1.2,1.3-2.4,2.7-3.5,4-2.6,3.1-5.3,5.5-8.5,8-1.2,1.5-2.4,3-3.6,4.4-2.2,2.4-4.8,4.2-7.4,6.1-1.9,1.4-3.7,2.9-5.5,4.5-3.3,2.9-6.8,5.3-10.5,7.6q-2,1.3-3.4,2.8c-2.3,2.2-5,3.7-7.7,5.4-3.7,2.3-7.4,4.5-11,7.1-14.7,9.9-31.4,16.8-47.9,23.1-.8.3-1.6.7-2.4,1-6.6,2.6-12,3.6-19.1,3.4-1,0-2,0-3.1,0-14.5-.3-28.9-1.2-43.4-2.1-3.1-.2-6.3-.4-9.4-.6-3-.2-6.1-.4-9.1-.5-1.4,0-2.9-.2-4.3-.3-2-.1-4-.2-6-.4-1.1,0-2.3-.1-3.4-.2-2.4-.2-4.5-.7-6.9-1.3-2.1-.2-4.3-.4-6.4-.6-1.3-.1-2.6-.2-4-.3q-1.1,0-2.1-.2c-2.2-.2-4.5-.4-6.7-.5-6.4-.5-12.7-1-19.1-1.5q-59.6-4.8-82.6-10.2c-1.3-.3-2.7-.6-4-.9-12.1-2.8-23.8-5.9-35.3-10.6-4.7-1.9-9.5-3.6-14.3-5.3-1-.4-2-.7-3-1.1-2.4-.9-4.9-1.8-7.3-2.6v-2c-.6-.1-1.1-.3-1.7-.4-10.1-2.7-19.4-7.5-28.1-13.3-4.2-2.5-8.6-4.5-13-6.6-3-1.7-4.8-3.3-7.2-5.7-2.1-1.4-4.3-2.7-6.4-4-4.1-2.4-7.9-5-11.6-8-1.9-1.4-3.7-2.8-5.6-4.2q-14.2-10.7-19.9-16.3c-3-3-6.4-5.5-9.8-8.1-2.9-2.5-5.3-5.3-7.8-8.2-3.8-4.4-7.9-8.5-11.9-12.7-4.7-4.9-8.9-10-13-15.4-.5-.7-1-1.3-1.5-2-3.5-4.6-7-9.3-10.5-14-.8-1-1.5-2-2.3-3.1-6.4-8.7-12.1-17.8-17.5-27.2-.4-.7-.8-1.3-1.2-2-2.1-3.8-3.8-7.4-5-11.7h-2c-1.7-3.8-3.3-7.6-5-11.4-.5-1.1-1-2.2-1.4-3.3l-1.4-3.1c-.4-1-.8-1.9-1.3-2.9q-.9-2.3-.9-4.3h-2q-.4-1.3-.9-2.6c-1.1-3.3-2.2-6.5-3.2-9.8-.5-1.4-.9-2.8-1.4-4.2-.7-2-1.3-4.1-2-6.1-.4-1.2-.8-2.4-1.2-3.7-.9-2.4-1.8-4.8-2.8-7.2-1.3-3-2.2-5.7-2.9-8.8-.2-1-.5-2-.7-3-.2-1.1-.5-2.1-.7-3.2-.3-1.1-.5-2.2-.8-3.3-2.1-9.2-4.1-18.4-5.8-27.7-.3-1.6-.6-3.2-1-4.8-.2-.8-.3-1.7-.5-2.6-.2-.8-.3-1.5-.5-2.3-1.3-7.2-1.6-14.2-1.6-21.6,0-1.1,0-2.2,0-3.3,0-3.6,0-7.2,0-10.8,0-2.6,0-5.2,0-7.7,0-5.6,0-11.1,0-16.7,0-8,0-16.1,0-24.1,0-13,0-26.1,0-39.1,0-12.7,0-25.3,0-38,0-.8,0-1.6,0-2.4,0-3.9,0-7.8,0-11.7,0-32.5,0-64.9,0-97.4ZM1299,290c0,1.4-.1,2.9-.1,4.3,0,.9,0,1.9,0,2.8,0,1,0,2.1,0,3.2,0,1.1,0,2.2,0,3.3,0,3.7,0,7.4,0,11.1,0,2.7,0,5.3,0,8,0,5.7,0,11.4,0,17.2,0,8.3,0,16.5,0,24.8,0,13.4,0,26.8,0,40.3,0,13,0,26.1,0,39.1,0,.8,0,1.6,0,2.4,0,4,0,8.1,0,12.1,0,33.5,0,66.9,0,100.4,8.2,0,16.5,0,24.7,0,3.8,0,7.6,0,11.5,0q31.9.3,63.7-2.4c1-.1,1.9-.3,2.9-.4,7.5-1.1,14.8-2.6,22.1-4.7,2.4-.6,4.8-1.2,7.2-1.8,27.5-6.7,53-19.7,68.4-44.2,3-5.2,5.9-10.5,8.6-15.8.8-1.5,1.6-3,2.3-4.4,16.3-32.2,14.4-79.7,3.6-113.3-3.9-10.4-8.7-19.9-15-29-.6-.9-1.1-1.7-1.7-2.6-6.4-9.7-14.9-19-25.3-24.4h-2v-2c-23.4-11.5-46.6-17.7-72.4-21.4q-3.6-.6-6.6-1.6c-10.2-1.3-20.6-1.3-30.9-1.6q-1.3,0-2.7,0c-13.7-.3-27.3-.5-41-.5-.8,0-1.7,0-2.5,0-2.3,0-4.7,0-7,0q-1,0-2.1,0-3.2-.3-5.9,1.1Z"/>
  <path class="cls-2" d="M1555.2,711.2c3.9,0,5.3.3,8.3,2.9,2.4,2.9,4.4,5.8,6.5,8.9,1.4,1.7,2.7,3.5,4.1,5.2.7.8,1.3,1.6,2,2.5,1.8,2.2,3.6,4.3,5.5,6.4,2.3,2.6,4.5,5.3,6.7,8.1,4.2,5.5,8.8,10.8,13.3,16.1,7.2,8.5,14.4,17,21.4,25.7.7.9,1.5,1.8,2.3,2.7q1.7,2.3,1.7,4.3.9.3,1.8.7c2.9,1.7,4.3,3.8,6.2,6.6,2.8,4,5.6,7.3,9.1,10.7,1.8,2.2,3.5,4.5,5.3,6.8,1.8,2.2,3.7,4.2,5.7,6.2,1.2,1.4,2.4,2.9,3.5,4.4,4,5.1,8.3,10.1,12.6,15q3.9,4.4,3.9,6.6c1,.3,2,.7,3,1,1.5,1.9,3,3.8,4.4,5.8,3,4.1,6,7.7,9.6,11.2,1.2,1.4,2.3,2.9,3.4,4.3,3.4,4.4,6.9,8.6,10.6,12.7q13.1,14.6,16,21h2q1.3,1.5,2.9,3.7c3.1,4.1,6.3,8,9.6,11.9,2.9,3.4,5.8,6.8,8.4,10.4,3,4.1,6.3,7.9,9.6,11.8,4.1,4.8,8,9.7,11.8,14.6,2.1,2.7,4.2,5.2,6.6,7.6,1.2,1.4,2.3,2.9,3.4,4.3,3.4,4.3,6.9,8.5,10.5,12.6,4.3,5,8.6,10.1,12.8,15.3,5.6,6.8,11.2,13.5,17,20,2.3,2.7,4.5,5.4,6.7,8.2,3,3.9,6.2,7.6,9.5,11.2,3,3.4,5.8,6.9,8.6,10.3,2.8,3.4,5.7,6.8,8.6,10.2,3.9,4.5,7.7,9.1,11.3,13.9,2.2,2.8,4.5,5.4,6.9,8,1.7,2,3.3,4,4.8,6.2,1.7,2.3,3.3,4.2,5.3,6.2,3,3,5.4,6.1,7.9,9.5q1.5,2,3.1,3.5c2.8,2.8,5.1,6,7.6,9.2q1.8,2.3,3.7,4.1t1.2,3.3c-37,.1-74,.2-111,.3-4.4,0-8.7,0-13.1,0-.9,0-1.7,0-2.6,0-14.1,0-28.2,0-42.3.1-14.4,0-28.9,0-43.3.1-8.9,0-17.8,0-26.8,0-6.1,0-12.2,0-18.3,0-3.5,0-7.1,0-10.6,0-3.8,0-7.6,0-11.5,0-1.1,0-2.2,0-3.4,0-2.8,0-5.4-.1-8.1-.8q-4-4.3-4-8c-1-.3-2-.7-3-1q-1.6-2-3.3-4.6c-2.1-3.1-4.1-6-6.6-8.8-2.4-2.8-4.6-5.6-6.8-8.6-6.2-8.7-13-17-19.7-25.4-2.2-2.7-4.3-5.5-6.3-8.4q-2.2-3.2-4.6-5.4c-3.2-3.3-5.7-6.8-8.3-10.5-2.7-3.8-5.5-7.5-8.3-11.2-.5-.7-1-1.4-1.6-2.1-1-1.4-2-2.7-3.1-4.1-1.3-1.8-2.6-3.5-4-5.3-4.4-5.9-8.9-11.8-13.5-17.6-5-6.5-10-13-15-19.5-2.7-3.5-5.3-7-8.1-10.5-.5-.6-.9-1.2-1.4-1.8-1.3-1.6-2.5-3.2-3.8-4.8q-1.7-2.4-1.7-4.4h-2c-1.7-2.2-3.3-4.5-4.9-6.8-.9-1.3-1.8-2.6-2.7-3.8-.4-.6-.8-1.1-1.2-1.7-1.3-1.7-2.7-3.1-4.2-4.6-1.2-1.6-2.4-3.3-3.6-5-3.6-5-7.4-9.7-11.3-14.4-3.3-4-6.4-8.2-9.5-12.4-3.7-4.9-7.5-9.7-11.4-14.4-2.3-2.9-4.6-5.8-6.8-8.8-1.1-1.4-2.2-2.8-3.3-4.2-2.1-2.6-4.1-5.4-6-8.1-2.1-2.9-4.1-5.5-6.6-8.1s-5.3-6.4-7.7-10c-1.5-2.1-3.1-4.1-4.8-6-2.9-3.2-5.2-6.7-7.4-10.3-1.6-2.3-3.5-4.1-5.5-6.1-1.4-1.8-2.8-3.6-4.2-5.5-.8-1.1-1.6-2.1-2.4-3.2-.8-1.1-1.6-2.2-2.4-3.3q-6.1-8.3-12.7-16.2c-3-3.3-5.4-6.8-7.8-10.5-2.1-3.2-4.5-6.1-6.9-9.1-1.6-2-3-4.1-4.5-6.1q-1.9-3-4.2-4c-1-1.7-1.9-3.4-2.8-5.1-1.8-3-4.1-5.6-6.5-8.2-4-4.7-7.7-9.4-11.2-14.5-1.4-2-2.9-3.8-4.4-5.7q-2.1-2.5-2.1-4.5c11.7-3.9,23.4-6.8,35.4-9.4q2.7-.6,5.5-1.6c5.6-1.6,11.4-2.2,17.2-3,1.3-.2,2.6-.3,4-.5,15.6-2,31.2-3.3,46.8-4.5,6.2-.5,12.4-1,18.6-1.6,2.1-.2,4.3-.4,6.4-.5,1.3-.1,2.6-.2,3.9-.3q1.7-.1,3.4-.3,2.6-.2,4.7-1.3c2-.2,3.9-.3,5.9-.5,1.2,0,2.5-.2,3.7-.2,1.4,0,2.7-.2,4.1-.2,1.4,0,2.8-.2,4.2-.3,3-.2,5.9-.4,8.9-.5,3.7-.2,7.5-.4,11.2-.7q27.8-1.7,40.9-2.3c4.4-.2,8.8-.6,13.2-1.1Z"/>
  <path class="cls-2" d="M1299,747v376h-236c0-8.8.2-17.3,1-26q.2-1.8.3-3.7c.2-2.5.4-5.1.7-7.6.3-3.8.7-7.6,1-11.4q4-45.9,8-61.3c.5-2.4,1.1-4.7,1.6-7.1,3.4-15,7.2-29.5,12.4-43.9.6-1.7,1.2-3.4,1.8-5.2,2.6-7.3,5.2-14.4,8.8-21.2,3.1-6.1,5.6-12.4,8.3-18.6h2c.2-.8.5-1.7.7-2.5,1.4-4,3.3-7.5,5.4-11.2q.6-1.1,1.2-2.1c14.6-25.4,32.9-49.5,53.6-70.2,1.3-1.5,2.5-2.9,3.8-4.4,3.4-3.8,6.9-6.9,11.1-9.9,2.6-2,4.8-4.4,7.2-6.7,11.3-9.8,23.4-18.9,36-27,1.1-.8,2.3-1.6,3.4-2.4q2.6-1.6,4.6-1.6v-2c3.1-1.7,6.2-3.3,9.4-5,.9-.5,1.8-1,2.7-1.4.9-.5,1.7-.9,2.6-1.4l2.4-1.3q2-.9,4-.9v-2c.7-.3,1.4-.6,2.1-.9,3.1-1.4,6.3-2.9,9.4-4.3,1.1-.5,2.2-1,3.3-1.5,4.6-2.1,9.2-4.2,13.7-6.5q9.5-4.8,13.5-4.8Z"/>
  <path class="cls-2" d="M400,1148q169.4,0,206.6,13.1c3.7,1.3,7.5,2.6,11.3,3.8l6.2,2.1v2q1.8.5,3.6,1.1c7.1,2.3,13.7,5.7,20.4,8.9v2q1.1.4,2.1.8c8.3,3.5,15.6,8.5,22.5,14.3,2.1,1.7,4.3,3.4,6.5,5,4.6,3.6,8.9,7.6,13.2,11.6q1,1,2.1,2c3.5,3.3,6.6,6.6,9.6,10.4q1,1,1.9,1.9c2.6,2.6,4.7,5.4,6.9,8.3.4.6.9,1.2,1.3,1.7,11.4,15,19.8,31.6,26.8,49.1q.5,1.1.9,2.2c2.8,6.5,4.6,13.1,6.1,20q.4,1.6.8,3.3c.7,3.2,1.4,6.3,2.2,9.5.2.8.4,1.6.5,2.4,2.9,13.1,3.6,25.7,3.6,39.1,0,1.2,0,2.5,0,3.7q0,19.5-2.6,28.8c-.8,3.1-1.3,6.2-1.9,9.3-4.8,27-15.4,62.2-35.7,81.7-1.1,1.3-2.1,2.7-3.1,4.1-11.9,15.4-26,29.6-41.9,40.9-1,.7-2,1.5-3,2.2q-34.6,24.8-48,24.8v2c-10.1,3.5-20.2,6.7-30.6,9.4-3.2.8-6.2,1.6-9.3,2.7-4.4,1.4-8.8,1.9-13.3,2.5q-1.3.2-2.7.4c-53.9,7.5-108.8,2.1-163.1,2.1v-429ZM447,1175c-1.4,2.7-1.1,4.9-1.1,8,0,1.3,0,2.6,0,3.9,0,1.4,0,2.9,0,4.3,0,1.5,0,3.1,0,4.6,0,4.2,0,8.4,0,12.6,0,4.5,0,9.1,0,13.6,0,8.9,0,17.8,0,26.7,0,7.2,0,14.4,0,21.7,0,1,0,2.1,0,3.1,0,2.1,0,4.2,0,6.3,0,19.6,0,39.1,0,58.7,0,16.8,0,33.6,0,50.4,0,19.5,0,39,0,58.5,0,2.1,0,4.2,0,6.2,0,1,0,2,0,3.1,0,7.2,0,14.4,0,21.6,0,8.8,0,17.6,0,26.4,0,4.5,0,9,0,13.5,0,4.1,0,8.2,0,12.3,0,1.5,0,3,0,4.5,0,2,0,4,0,6,0,1.1,0,2.2,0,3.4q0,2.8,1.1,5.7c10.6,0,21.3,0,31.9.1,4.9,0,9.9,0,14.8,0,4.8,0,9.6,0,14.4,0,1.8,0,3.6,0,5.4,0,17.1,0,33.4-1.5,50.1-5,1.2-.3,2.5-.5,3.8-.8,11-2.4,21.4-5.2,31.5-10.3,2-1,4-2,5.9-2.9,18.2-8.9,33.5-20.2,48.1-34.1.7-.6,1.4-1.2,2.1-1.9,15.5-14.5,26.6-33.8,34.9-53.1.3-.7.6-1.4.9-2.1,18.9-43.8,20.2-102.4,3.1-146.9-.2-.6-.5-1.3-.7-1.9-3-7.9-6.2-15.6-10.3-23.1-.6-1.1-1.1-2.1-1.7-3.2-9.7-18-24.6-36.9-41.3-48.8h-2c-.3-1-.7-2-1-3q-2.3-1.8-5.2-3.4c-1-.6-2-1.2-3-1.9-.9-.6-1.8-1.1-2.8-1.7-2-1.3-4-2.7-6-4-14.9-9.9-31.6-16-48.8-20.4-2.7-.7-5.4-1.5-8-2.3-18.6-5-38.7-4.4-57.8-4.3-1.7,0-3.4,0-5.1,0-4.4,0-8.8,0-13.2,0-4.5,0-9,0-13.6,0-8.8,0-17.6,0-26.4,0Z"/>
  <path class="cls-2" d="M917,1148h45c6.2,7.9,12.2,15.8,17.8,24.1.5.7,1,1.4,1.5,2.2,1,1.4,1.9,2.8,2.9,4.2,2.4,3.5,4.8,6.5,7.9,9.5,1.2,1.8,2.3,3.6,3.4,5.4,2.2,3.6,4.5,6.9,7.3,10.1,2.2,2.7,4.2,5.5,6.2,8.3.4.6.9,1.2,1.3,1.9,2.5,3.5,5,7.1,7.4,10.6,2.3,3.4,4.8,6.5,7.4,9.7,2.8,3.4,5.2,6.8,7.5,10.6,2.9,4.6,6,8.8,9.5,13,5.7,7,10.7,14.4,15.4,22.1q1.6,2.4,3.6,4.3c2.5,2.5,4.3,5.2,6.3,8.1.8,1.2,1.6,2.3,2.4,3.5.4.6.8,1.2,1.2,1.8,2.4,3.5,4.9,6.9,7.5,10.3q1.7,2.4,3.3,5.1t3.7,4.4c3.3,3.5,5.6,7.3,8.1,11.4,1.4,2.2,2.8,3.7,4.6,5.5,1.4,2,2.8,4,4.2,6,3.6,5.3,7.3,10.4,11.1,15.6q1.7,2.4,3.3,5.1,1.4,2.4,3.7,4.4c3.3,3.5,5.6,7.3,8.1,11.4,1.4,2.2,2.8,3.7,4.6,5.5,1.6,2.2,3.2,4.3,4.7,6.5.9,1.3,1.8,2.5,2.7,3.8.9,1.2,1.8,2.5,2.6,3.7,4.2,5.9,8.4,11.7,13.4,17,1.8,2.3,3.2,4.7,4.6,7.2,1.7,2.9,3.8,5.5,5.9,8.1,3.7,4.7,7.2,9.5,10.6,14.4,1.5,2.1,3.1,4.2,4.6,6.3,2.7,3.6,5.2,7.3,7.6,11.2q1.2,1.9,3.3,2.8c.7,1.2,1.4,2.5,2,3.8,2.6,4.9,5.9,9.1,9.3,13.4,2.9,3.7,5.6,7.6,8.2,11.6q7.8,13.1,19.5,21.2c.3-120.4.7-240.9,1-365h27v429h-44v-2c-1-.3-2-.7-3-1q-1.5-2-3.1-4.8c-3.5-5.7-7.4-10.9-11.6-16.1-1.7-2.3-3.1-4.4-4.5-6.9q-1.7-3.3-4.2-5.5c-3.3-3.4-5.5-7-7.9-11-1.8-2.7-3.7-5.2-5.7-7.7-1.6-2.2-3.2-4.4-4.8-6.7-.4-.6-.9-1.2-1.3-1.9-2.5-3.5-5-7.1-7.5-10.6-5.3-7.6-10.7-15-16.3-22.3q-1-1.6-1-3.6h-2q-1.4-2.1-3.1-4.9c-3-4.8-6.3-9.2-9.9-13.6q-9-11.2-9-14.5h-2c-1.4-1.8-2.7-3.7-3.9-5.6-.8-1.2-1.6-2.4-2.4-3.6-.4-.6-.9-1.3-1.3-1.9-2.2-3.3-4.6-6.4-6.9-9.6-.5-.6-.9-1.3-1.4-1.9-2.7-3.7-5.6-7.3-8.5-10.9-2.2-2.7-4.1-5.3-5.8-8.3q-1.7-3.3-4.3-5.7c-2.4-2.4-3.8-4.7-5.4-7.6-1.7-2.9-3.8-5.5-5.9-8.2-3.7-4.7-7.2-9.6-10.7-14.5-1.3-1.9-2.7-3.6-4.2-5.3-3.5-4.2-5.9-8.9-8.3-13.8h-2q-1.1-1.4-2.4-3.6c-3.3-5.1-6.9-10-10.5-14.9-.9-1.2-1.8-2.4-2.7-3.7-.9-1.3-1.9-2.5-2.8-3.8q-3.5-4.8-3.5-7.1c-1-.3-2-.7-3-1q-1.5-2-3.1-4.8c-2.7-4.5-5.7-8.6-8.9-12.8-4.5-5.7-8.8-11.6-13.1-17.5q-1-1.4-2.1-2.8c-.6-.9-1.3-1.8-1.9-2.7-.6-.8-1.2-1.6-1.8-2.4q-1.2-2-1.2-4h-2q-1.4-1.9-3-4.7c-2.8-4.6-5.8-8.8-9.1-13-3.2-4.1-6.2-8.1-8.7-12.6q-1.1-1.8-3-3.6c-2.3-2.3-3.9-4.8-5.6-7.6q-3.4-5.6-7.5-10.6-3-.5-6-1v364h-29v-429Z"/>
  <path class="cls-2" d="M1452,1148h43q7.9,9,10.7,12.9c.7.9,1.3,1.8,2,2.8,1.8,2.5,3.5,5,5.3,7.5.5.7,1,1.5,1.6,2.3,1,1.5,2,2.9,3.1,4.4,2.8,4,5.8,7.8,9.1,11.5,1.3,1.6,2.3,3.2,3.3,5.1,1.7,3.2,3.9,5.8,6.3,8.5,3.5,4.1,6.5,8.6,9.7,13,1.3,1.8,2.7,3.7,4,5.5q1,1.4,2,2.7c1.3,1.8,2.7,3.7,4,5.5,3.8,5.2,7.5,10.4,11.2,15.7,3.2,4.6,6.5,9,9.8,13.5,2.7,3.7,5.3,7.3,8,11,.7.9,1.4,1.9,2.1,2.8.6.9,1.3,1.8,1.9,2.7.6.8,1.2,1.6,1.8,2.4q1.2,2,1.2,4h2c1.3,1.8,2.6,3.7,3.8,5.6,2.8,4.4,5.8,8.4,9.2,12.4,1.7,2.2,3.3,4.5,4.9,6.8.4.6.9,1.2,1.3,1.9,2.5,3.6,5.1,7.2,7.6,10.8,2.4,3.5,5,6.9,7.5,10.3,2.6,3.5,5.1,7.1,7.7,10.6,2.3,3.3,4.7,6.6,7.1,9.8.5.7,1,1.4,1.5,2.1,1,1.3,2,2.6,3,4q3.4,4.6,3.4,6.8h2c1.3,1.8,2.6,3.7,3.8,5.6,2.8,4.4,5.8,8.4,9.2,12.4,1.6,2.2,3.2,4.4,4.8,6.7.9,1.2,1.8,2.5,2.6,3.7l1.3,1.8c4.3,6.1,8.7,12.1,13.4,17.9q8.9,11,10.9,16.9h2q1.3,1.7,2.8,4c2,3.1,4,6,6.2,8.9,2.2,2.9,4.4,6,6.5,9,2.2,3.2,4.5,6.3,6.9,9.4,3.2,4.1,6.1,8.3,9.1,12.5,2.1,3,4.2,6.1,6.4,9,.5.6.9,1.3,1.4,1.9.9,1.2,1.8,2.5,2.7,3.7q3.1,4.3,3.1,6.5h2c1.1,1.6,2.2,3.3,3.2,5q5.6,9.7,14.8,15v-365h28v429h-44c-3.4-4.1-6.6-8.1-9.6-12.4-.4-.6-.8-1.2-1.3-1.8-3.8-5.4-7.5-10.8-11.3-16.3-3.2-4.6-6.4-9.1-9.8-13.6-4.5-5.8-8.6-11.8-12.7-17.8-3.7-5.3-7.5-10.5-11.5-15.6q-1.8-2.6-2.8-5.3c-.3-.7-.6-1.5-.9-2.2-1-.3-2-.7-3-1q-1.5-2-3.1-4.8c-2.8-4.5-5.7-8.8-9-12.9q-.6-.8-1.3-1.7c-1.2-1.5-2.4-3.1-3.6-4.6q-12-15.5-16-24h-2c-1.2-1.7-2.4-3.4-3.5-5.2-3-4.7-6.2-9.2-9.6-13.6-.4-.6-.9-1.1-1.3-1.7-1.2-1.5-2.4-3.1-3.6-4.6-4.5-5.8-8.7-11.9-12.9-17.9-2-2.8-4-5.4-6.1-8.1-1.1-1.5-2.1-3-3.2-4.6-4.6-6.7-9.6-13.1-14.5-19.6-3.4-4.4-6.6-8.9-9.7-13.5-1.1-1.5-2.2-3-3.3-4.5q-1.3-1.8-1.3-3.8h-2c-1.6-2.3-3.2-4.6-4.7-6.9-3.4-5.2-6.9-10.3-10.8-15.1q-6.5-8.2-6.5-10.9c-1-.3-2-.7-3-1q-1.4-2-3-4.6c-3.4-5.6-7.3-10.9-11.3-16.2-2.5-3.3-4.4-6.3-5.7-10.2h-2c-1.3-1.8-2.6-3.7-3.8-5.6-2.8-4.4-5.8-8.4-9.2-12.4-1.5-2-2.9-4.1-4.3-6.2-3.6-5.2-7.2-10.3-11-15.4-1.4-1.9-2.7-3.8-3.9-5.7q-1.8-2.7-4.3-5.1c-2.5-2.5-3.8-4.8-5.5-7.9q-1.2-2-3.8-4.5l-2.2-2.2v-3h-7v364h-27v-429Z"/>
  <path class="cls-2" d="M2103,1139c.8.2,1.7.4,2.5.6,8.6,1.9,16.8,4.2,24.7,8.1,2.7,1.3,5.4,2.5,8.1,3.6,15.4,6.5,30.5,14.4,43.7,24.8q1.6,1,3.2,2.1c3.9,2.7,7.3,5.8,10.8,8.9,1.3,1.1,2.6,2.3,3.9,3.4,1.4,1.2,2.8,2.4,4.1,3.6.8.7,1.6,1.4,2.5,2.2,5.3,4.6,10,9.4,14.5,14.8,1.1,1.3,2.2,2.5,3.2,3.8q5.8,6.7,5.8,9.2c-4.6,4.9-10.2,8.6-16,12-.6-.8-1.2-1.5-1.8-2.3q-2-2.5-3.6-4.1c-1.8-1.8-3.3-3.6-4.9-5.5-2.7-3.1-5.4-5.5-8.6-8.1-1.2-1.5-2.4-3-3.6-4.4-2.8-3-6.1-5.2-9.4-7.6-1.2-.9-2.4-1.9-3.6-2.8-17.6-13.2-38.4-24.8-59.5-31.3q-2.9-.9-6.5-2.4c-5.2-2-10.6-2.8-16.1-3.6-1.1-.2-2.1-.3-3.3-.5-7.4-1.1-14.6-2.2-22.1-2.4q-1.1,0-2.3,0c-34.2-.8-63.6,6.9-93,24.6-.8.5-1.5.9-2.3,1.4-4.9,3-9.2,6.3-13.4,10.1q-1,.9-2.1,1.8c-1.3,1.1-2.5,2.2-3.8,3.3-1.5,1.3-2.9,2.5-4.4,3.8-4.3,3.7-8,7.3-11.2,12-1.2,1.7-2.5,3.3-3.8,4.8-8.2,9.8-14.9,20.8-20.7,32.2-.6,1.1-1.2,2.3-1.8,3.4-3.6,7-6.6,13.9-9.1,21.3q-1.1,3.3-2.6,6.5c-1.9,4.4-3,9.1-4,13.8-.2,1-.4,1.9-.6,2.9-3,13.8-4.9,27.8-5.6,41.9q-.2,2.2-1.2,3.2c0,2.1-.1,4.1-.1,6.2,0,1.3,0,2.5,0,3.8,0,.7,0,1.3,0,2,0,2,0,4,0,6q0,1.9,0,3.8t0,3.5,1.1,3.7c.2,1.4.3,2.9.4,4.4,0,.9.1,1.8.2,2.8,0,1,.1,2,.2,3,1.3,16,4,31.6,8.5,47q.7,2.8.7,5.8h2c1.1,3.1,2.2,6.3,3.3,9.4.3.9.6,1.8.9,2.7,2,5.6,3.9,11.2,5.8,16.9h2c.2.5.5,1,.7,1.5,6,12.2,12.8,23,21.3,33.5.5.6.9,1.1,1.4,1.7,5.1,6.4,10.3,12.1,16.6,17.3,1.1,1,2.2,1.9,3.3,2.9,9.8,8.4,20.2,15.4,31.7,21.1,1,.5,1.9,1,2.9,1.6,7.4,4,15,6.5,23.1,8.8,2.2.7,4.3,1.4,6.4,2.2,21.9,7.3,49.1,6.7,71.6,2.5,1-.2,2-.4,3.1-.6,8.5-1.7,16.6-4.1,24.8-7.1,1.2-.4,2.4-.9,3.7-1.3,9.2-3.4,17.9-7.2,26.4-12,.9-.5,1.7-1,2.6-1.4,10.4-6,21-12.9,29.9-21.2q1.5-1.4,4.1-3.3c4.5-3.9,8.7-8,10.1-13.9.2-3.2.2-6.4.2-9.7,0-1.2,0-2.4,0-3.7,0-3.3,0-6.6,0-10,0-3.5,0-7,0-10.4,0-6.6,0-13.2-.1-19.7,0-8.2-.1-16.5-.2-24.7,0-14.7-.2-29.3-.3-44h-123v-27h169v225h-18c-.3-1.5-.5-3-.8-4.6-.4-2-.7-4-1.1-6-.2-1-.3-2-.5-3-.7-4.1-1.5-8.1-2.6-12-1.2-4.3-1.9-8.6-2.6-13.1-.1-.8-.3-1.7-.4-2.5-.6-3.7-1-7-1-10.8-7.2,1.1-10.3,3.6-15,9-3.7,3.9-7.6,7.1-11.9,10.4q-2,1.5-3.6,3.1c-2,1.9-4.1,3.4-6.4,5-.8.6-1.7,1.2-2.6,1.8-4.5,3-9.1,5.6-13.9,8.2-1.9,1.1-3.8,2.1-5.6,3.2-11.7,6.7-24.3,10.9-37.1,15.2-2.5.9-5,1.8-7.4,2.7-29.7,10.8-67.1,7.7-97.5,2.4-.9-.2-1.8-.3-2.7-.5-5.1-1-9.5-2.4-14.3-4.6-3.1-1.1-6.3-2-9.4-3-5.9-1.8-11.8-3.8-17.6-6v-2c-.8-.2-1.6-.5-2.4-.7-4.3-1.5-8.3-3.4-12.4-5.4-.8-.4-1.6-.7-2.4-1.1-1.9-.9-3.8-1.8-5.8-2.7v-2c-.7-.3-1.4-.5-2.2-.8-6.7-2.8-12.7-6.8-18.1-11.7-1.8-1.5-3.6-2.9-5.5-4.3-12.3-9.1-22.7-20.3-32.2-32.2-.7-.8-1.4-1.7-2.1-2.5-7.6-9.4-14.5-18.7-19.9-29.5q-.5-.9-.9-1.8c-4.8-9.2-9.1-18.6-13.1-28.2q-.5-1.1-1-2.2c-2.6-6.3-4.5-12.5-6-19.1q-.4-1.6-.8-3.1c-1.6-6.7-3.2-13.5-4.5-20.3-.2-.8-.3-1.5-.5-2.3-2.2-11.4-2.4-22.8-2.4-34.4,0-2.5,0-5.1,0-7.6,0-15.7,1.4-30.7,5.2-45.9.4-1.7.8-3.4,1.2-5,3-13.1,6.4-25.4,12.3-37.6,1.6-3.5,3.1-7,4.6-10.6,2.1-4.9,4.4-9.2,7.5-13.5,2.9-4.2,5.2-8.7,7.5-13.2h2c.2-.7.5-1.4.7-2.1,1.5-3.4,3.6-6.2,5.9-9.1.4-.6.9-1.1,1.3-1.7,5.3-6.7,11-13,17-19,.7-.8,1.4-1.5,2.2-2.3,9.5-9.9,20.4-18,31.8-25.7,1.1-.7,2.1-1.4,3.2-2.2q37-23.8,53.8-23.8v-2c34.4-9,72.9-12.7,108-5Z"/>
  <path class="cls-2" d="M799,1148h46v429h-46v-429Z"/>
  <path class="cls-2" d="M1334,1148h45v429h-45v-429Z"/>
</svg>